# Blender 3.3.1
# www.blender.org
mtllib status_left.mtl
o status_left
v -0.020600 -0.006751 0.050184
v -0.016828 -0.026517 0.070985
v -0.016051 -0.005335 0.050705
v -0.012279 -0.025100 0.071506
v -0.011250 -0.004270 0.050847
v -0.007479 -0.024036 0.071647
v -0.006384 -0.003599 0.050602
v -0.002612 -0.023364 0.071403
v -0.001638 -0.003346 0.049982
v 0.002134 -0.023112 0.070782
v 0.002806 -0.003522 0.049009
v 0.006577 -0.023288 0.069810
v 0.006775 -0.004120 0.047721
v 0.010546 -0.023885 0.068522
vn -0.2867 0.6680 0.6867
vn -0.1752 0.6976 0.6947
vn -0.0642 0.7176 0.6935
vn 0.0506 0.7285 0.6831
vn 0.1737 0.7294 0.6616
vn 0.3106 0.7166 0.6246
vt -0.000197 1.003108
vt 0.000667 0.001393
vt 0.166715 1.003255
vt 0.167579 0.001540
vt 0.333627 1.003402
vt 0.334491 0.001687
vt 0.500539 1.003549
vt 0.501403 0.001834
vt 0.667450 1.003696
vt 0.668315 0.001981
vt 0.834362 1.003843
vt 0.835227 0.002128
vt 1.001274 1.003990
vt 1.002138 0.002275
s 0
usemtl status
f 1/1/1 2/2/1 4/4/1 3/3/1
f 3/3/2 4/4/2 6/6/2 5/5/2
f 5/5/3 6/6/3 8/8/3 7/7/3
f 7/7/4 8/8/4 10/10/4 9/9/4
f 9/9/5 10/10/5 12/12/5 11/11/5
f 11/11/6 12/12/6 14/14/6 13/13/6
