# Blender 3.3.1
# www.blender.org
mtllib crystal_controller_right_button1.mtl
o crystal_controller_right_button1
v 0.008135 -0.001288 -0.006014
v 0.012890 -0.001294 -0.009468
v 0.018768 -0.001294 -0.009468
v 0.023524 -0.001288 -0.006014
v 0.025340 -0.001278 -0.000423
v 0.023524 -0.001268 0.005167
v 0.018768 -0.001261 0.008622
v 0.012890 -0.001261 0.008622
v 0.008135 -0.001268 0.005167
v 0.006319 -0.001278 -0.000423
v 0.009284 0.001501 -0.005184
v 0.013329 0.001496 -0.008123
v 0.018329 0.001496 -0.008123
v 0.022374 0.001501 -0.005184
v 0.023920 0.001510 -0.000428
v 0.022374 0.001519 0.004327
v 0.018329 0.001524 0.007266
v 0.013329 0.001524 0.007266
v 0.009284 0.001519 0.004327
v 0.007739 0.001510 -0.000428
v 0.009241 0.008420 -0.000383
v 0.010499 0.008413 -0.004256
v 0.013793 0.008409 -0.006649
v 0.017865 0.008409 -0.006649
v 0.021159 0.008413 -0.004256
v 0.022418 0.008420 -0.000383
v 0.021159 0.008427 0.003489
v 0.017865 0.008432 0.005882
v 0.013793 0.008432 0.005882
v 0.010499 0.008427 0.003489
v 0.010574 0.008384 -0.000380
v 0.011578 0.008378 -0.003469
v 0.014205 0.008375 -0.005378
v 0.017453 0.008375 -0.005378
v 0.020081 0.008378 -0.003469
v 0.021084 0.008384 -0.000380
v 0.020081 0.008390 0.002709
v 0.017453 0.008393 0.004618
v 0.014205 0.008393 0.004618
v 0.011578 0.008390 0.002709
v 0.015829 0.009288 -0.000359
v 0.018156 0.007163 0.006740
v 0.021919 0.007158 0.004005
v 0.023357 0.007150 -0.000419
v 0.021919 0.007142 -0.004844
v 0.018156 0.007137 -0.007579
v 0.013503 0.007137 -0.007579
v 0.009739 0.007142 -0.004844
v 0.008302 0.007150 -0.000419
v 0.009739 0.007158 0.004005
v 0.013503 0.007163 0.006740
v 0.009212 0.005786 -0.000456
v 0.008557 0.006321 -0.000441
v 0.010480 0.005779 -0.004342
v 0.009949 0.006315 -0.004713
v 0.013787 0.005775 -0.006740
v 0.013584 0.006311 -0.007351
v 0.017871 0.005775 -0.006739
v 0.018074 0.006311 -0.007350
v 0.021176 0.005779 -0.004341
v 0.021708 0.006315 -0.004713
v 0.022444 0.005786 -0.000456
v 0.023100 0.006321 -0.000441
v 0.021185 0.005793 0.003435
v 0.021715 0.006327 0.003835
v 0.017876 0.005797 0.005844
v 0.018078 0.006330 0.006480
v 0.013782 0.005797 0.005844
v 0.013580 0.006331 0.006481
v 0.010472 0.005793 0.003436
v 0.009943 0.006327 0.003835
v 0.021665 0.007884 0.003841
v 0.023042 0.007876 -0.000398
v 0.021665 0.007868 -0.004638
v 0.018058 0.007864 -0.007259
v 0.013600 0.007864 -0.007259
v 0.009994 0.007868 -0.004638
v 0.008616 0.007876 -0.000398
v 0.009994 0.007884 0.003841
v 0.013600 0.007888 0.006462
v 0.018058 0.007888 0.006462
v 0.020589 0.008415 0.003086
v 0.021713 0.008409 -0.000372
v 0.020589 0.008403 -0.003831
v 0.017647 0.008399 -0.005968
v 0.014011 0.008399 -0.005968
v 0.011070 0.008403 -0.003831
v 0.009946 0.008409 -0.000372
v 0.011070 0.008415 0.003086
v 0.014011 0.008419 0.005223
v 0.017647 0.008419 0.005223
v 0.011397 0.004580 -0.000434
v 0.012243 0.004575 -0.003039
v 0.014460 0.004573 -0.004650
v 0.017199 0.004572 -0.004650
v 0.019415 0.004575 -0.003039
v 0.020262 0.004580 -0.000434
v 0.019415 0.004585 0.002171
v 0.017199 0.004588 0.003781
v 0.014460 0.004588 0.003781
v 0.012244 0.004585 0.002171
v 0.011373 0.006022 -0.000457
v 0.012224 0.006017 -0.003076
v 0.014452 0.006014 -0.004695
v 0.017206 0.006014 -0.004695
v 0.019434 0.006017 -0.003076
v 0.020285 0.006022 -0.000457
v 0.019435 0.006027 0.002162
v 0.017207 0.006030 0.003782
v 0.014452 0.006030 0.003782
v 0.012224 0.006027 0.002163
vn -0.6588 0.5795 -0.4797
vn -0.7474 0.3817 -0.5437
vn -0.9239 0.3827 -0.0007
vn -0.8143 0.5804 -0.0010
vn -0.2855 0.3811 -0.8794
vn -0.2516 0.5790 -0.7755
vn 0.2855 0.3811 -0.8794
vn 0.2516 0.5790 -0.7755
vn 0.7474 0.3817 -0.5437
vn 0.6588 0.5795 -0.4797
vn 0.9239 0.3827 -0.0007
vn 0.8143 0.5804 -0.0011
vn 0.7474 0.3837 0.5424
vn 0.6588 0.5813 0.4776
vn 0.2855 0.3843 0.8780
vn 0.2516 0.5818 0.7734
vn -0.2855 0.3843 0.8780
vn -0.2517 0.5818 0.7734
vn -0.7474 0.3837 0.5424
vn -0.6588 0.5813 0.4776
vn -0.4653 0.8175 -0.3394
vn -0.1779 0.8166 -0.5491
vn 0.1781 0.8166 -0.5491
vn 0.4654 0.8175 -0.3394
vn 0.5740 0.8189 -0.0013
vn 0.4634 0.8202 0.3354
vn 0.1767 0.8211 0.5428
vn -0.1769 0.8211 0.5427
vn -0.4634 0.8203 0.3354
vn -0.5740 0.8189 -0.0013
vn 0.3472 0.9378 -0.0016
vn 0.2787 0.9392 0.2008
vn -0.4394 0.8394 -0.3199
vn -0.5476 0.8367 -0.0007
vn 0.1059 0.9400 0.3243
vn -0.1670 0.8410 -0.5146
vn -0.1059 0.9400 0.3243
vn 0.1670 0.8410 -0.5146
vn -0.2787 0.9392 0.2008
vn 0.4394 0.8394 -0.3199
vn -0.3472 0.9378 -0.0016
vn 0.5476 0.8367 -0.0007
vn -0.2832 0.9364 -0.2074
vn 0.4467 0.8340 0.3239
vn 0.1715 0.8323 0.5272
vn -0.1087 0.9355 -0.3362
vn 0.1088 0.9355 -0.3362
vn -0.1715 0.8323 0.5272
vn 0.2832 0.9364 -0.2074
vn -0.4467 0.8340 0.3239
vn -0.2682 0.9634 -0.0024
vn -0.2173 0.9634 -0.1570
vn -0.0831 0.9634 -0.2549
vn 0.0831 0.9634 -0.2549
vn 0.2173 0.9634 -0.1570
vn 0.2681 0.9634 -0.0024
vn 0.2163 0.9634 0.1583
vn 0.0825 0.9634 0.2551
vn -0.0825 0.9634 0.2551
vn -0.2164 0.9634 0.1583
vn -0.0000 1.0000 -0.0019
vn 0.2553 0.5637 0.7855
vn 0.3019 0.2140 0.9290
vn 0.7886 0.2237 0.5728
vn 0.6653 0.5692 0.4831
vn 0.9709 0.2393 -0.0002
vn 0.8161 0.5779 -0.0003
vn 0.7822 0.2546 -0.5686
vn 0.6552 0.5863 -0.4764
vn 0.2997 0.2640 -0.9168
vn 0.2490 0.5916 -0.7668
vn -0.2997 0.2640 -0.9168
vn -0.2490 0.5916 -0.7668
vn -0.7822 0.2546 -0.5686
vn -0.6551 0.5864 -0.4764
vn -0.9709 0.2393 -0.0002
vn -0.8161 0.5779 -0.0004
vn -0.7886 0.2237 0.5728
vn -0.6653 0.5692 0.4831
vn -0.3004 0.2141 0.9295
vn -0.2553 0.5637 0.7855
vn -0.9581 -0.2865 -0.0006
vn -0.7775 -0.2753 -0.5655
vn -0.2975 -0.2685 -0.9162
vn 0.2975 -0.2686 -0.9162
vn 0.7774 -0.2758 -0.5654
vn 0.9579 -0.2870 -0.0006
vn 0.7725 -0.2982 0.5606
vn 0.2945 -0.3049 0.9057
vn -0.2945 -0.3047 0.9058
vn -0.7726 -0.2977 0.5608
vn -0.0120 -0.9999 0.0015
vn -0.0110 -0.9999 -0.0065
vn -0.0085 -0.9999 0.0076
vn -0.0045 -0.9999 -0.0123
vn 0.0045 -0.9999 -0.0123
vn 0.0110 -0.9999 -0.0065
vn 0.0120 -0.9999 0.0015
vn 0.0085 -0.9999 0.0076
vn 0.0030 -0.9999 0.0105
vn -0.0029 -0.9999 0.0105
vn -0.0529 -0.9986 0.0018
vn -0.0427 -0.9987 -0.0293
vn -0.0194 -0.9987 -0.0473
vn 0.0200 -0.9987 -0.0472
vn 0.0428 -0.9987 -0.0293
vn 0.0530 -0.9986 0.0018
vn 0.0429 -0.9985 0.0330
vn 0.0126 -0.9985 0.0536
vn -0.0126 -0.9985 0.0536
vn -0.0429 -0.9985 0.0329
vt 0.711521 0.405204
vt 0.691509 0.384733
vt 0.687309 0.356402
vt 0.700469 0.331048
vt 0.725932 0.317960
vt 0.754542 0.322317
vt 0.775155 0.343004
vt 0.779449 0.371739
vt 0.765939 0.397633
vt 0.739800 0.410279
vt 0.716497 0.396104
vt 0.700930 0.380106
vt 0.697662 0.358133
vt 0.707868 0.338318
vt 0.727772 0.328185
vt 0.749964 0.331677
vt 0.765896 0.347647
vt 0.769299 0.370057
vt 0.758777 0.390073
vt 0.738548 0.399966
vt 0.735567 0.377758
vt 0.727100 0.376337
vt 0.721087 0.370220
vt 0.719808 0.361725
vt 0.723777 0.354121
vt 0.731447 0.350283
vt 0.739925 0.351685
vt 0.745959 0.357808
vt 0.747229 0.366291
vt 0.743267 0.373923
vt 0.735167 0.374902
vt 0.728458 0.373778
vt 0.723688 0.368929
vt 0.722679 0.362206
vt 0.725822 0.356174
vt 0.731903 0.353134
vt 0.738618 0.354248
vt 0.743393 0.359096
vt 0.744403 0.365824
vt 0.741265 0.371863
vt 0.733613 0.364011
vt 0.748812 0.356326
vt 0.741313 0.348766
vt 0.730832 0.347074
vt 0.721384 0.351847
vt 0.716514 0.361219
vt 0.718098 0.371649
vt 0.725477 0.379209
vt 0.735919 0.381003
vt 0.745451 0.376300
vt 0.750376 0.366853
vt 0.736262 0.384277
vt 0.736046 0.382367
vt 0.723844 0.382076
vt 0.724788 0.380390
vt 0.715122 0.373068
vt 0.716864 0.372227
vt 0.713188 0.360705
vt 0.715149 0.361019
vt 0.718980 0.349579
vt 0.720379 0.350918
vt 0.730200 0.343837
vt 0.730554 0.345731
vt 0.742719 0.345791
vt 0.741886 0.347517
vt 0.751727 0.354800
vt 0.750028 0.355680
vt 0.753552 0.367418
vt 0.751715 0.367102
vt 0.747664 0.378726
vt 0.746366 0.377324
vt 0.740653 0.350180
vt 0.731141 0.348619
vt 0.722545 0.352934
vt 0.718104 0.361458
vt 0.719540 0.370966
vt 0.726269 0.377830
vt 0.735762 0.379436
vt 0.744406 0.375145
vt 0.748859 0.366577
vt 0.747437 0.357047
vt 0.739276 0.352994
vt 0.731700 0.351738
vt 0.724843 0.355167
vt 0.721296 0.361968
vt 0.722436 0.369558
vt 0.727815 0.375026
vt 0.735383 0.376294
vt 0.742263 0.372866
vt 0.745802 0.366050
vt 0.744664 0.358465
vt 0.737001 0.387866
vt 0.722311 0.385401
vt 0.711903 0.374772
vt 0.709723 0.360076
vt 0.716547 0.346865
vt 0.729855 0.340197
vt 0.744562 0.342603
vt 0.755045 0.353230
vt 0.757290 0.368006
vt 0.750362 0.381239
vt 0.736702 0.386383
vt 0.722954 0.384043
vt 0.713278 0.374094
vt 0.711271 0.360332
vt 0.717555 0.347973
vt 0.730003 0.341699
vt 0.743811 0.343944
vt 0.753727 0.353905
vt 0.755858 0.367770
vt 0.749252 0.380183
s 1
usemtl crystal_controller2_group1_pasted__pCylinder5SG
f 11/11/1 1/1/2 10/10/3 20/20/4
f 2/2/5 1/1/2 11/11/1 12/12/6
f 3/3/7 2/2/5 12/12/6 13/13/8
f 4/4/9 3/3/7 13/13/8 14/14/10
f 5/5/11 4/4/9 14/14/10 15/15/12
f 6/6/13 5/5/11 15/15/12 16/16/14
f 7/7/15 6/6/13 16/16/14 17/17/16
f 8/8/17 7/7/15 17/17/16 18/18/18
f 9/9/19 8/8/17 18/18/18 19/19/20
f 10/10/3 9/9/19 19/19/20 20/20/4
f 12/12/6 11/11/1 93/93/21 94/94/22
f 13/13/8 12/12/6 94/94/22 95/95/23
f 14/14/10 13/13/8 95/95/23 96/96/24
f 15/15/12 14/14/10 96/96/24 97/97/25
f 16/16/14 15/15/12 97/97/25 98/98/26
f 17/17/16 16/16/14 98/98/26 99/99/27
f 18/18/18 17/17/16 99/99/27 100/100/28
f 19/19/20 18/18/18 100/100/28 101/101/29
f 20/20/4 19/19/20 101/101/29 92/92/30
f 11/11/1 20/20/4 92/92/30 93/93/21
f 88/88/31 87/87/32 22/22/33 21/21/34
f 87/87/32 86/86/35 23/23/36 22/22/33
f 86/86/35 85/85/37 24/24/38 23/23/36
f 85/85/37 84/84/39 25/25/40 24/24/38
f 84/84/39 83/83/41 26/26/42 25/25/40
f 83/83/41 82/82/43 27/27/44 26/26/42
f 28/28/45 27/27/44 82/82/43 91/91/46
f 91/91/46 90/90/47 29/29/48 28/28/45
f 90/90/47 89/89/49 30/30/50 29/29/48
f 89/89/49 88/88/31 21/21/34 30/30/50
f 31/31/51 32/32/52 87/87/32 88/88/31
f 32/32/52 33/33/53 86/86/35 87/87/32
f 33/33/53 34/34/54 85/85/37 86/86/35
f 34/34/54 35/35/55 84/84/39 85/85/37
f 35/35/55 36/36/56 83/83/41 84/84/39
f 36/36/56 37/37/57 82/82/43 83/83/41
f 37/37/57 38/38/58 91/91/46 82/82/43
f 38/38/58 39/39/59 90/90/47 91/91/46
f 39/39/59 40/40/60 89/89/49 90/90/47
f 40/40/60 31/31/51 88/88/31 89/89/49
f 31/31/51 41/41/61 32/32/52
f 32/32/52 41/41/61 33/33/53
f 33/33/53 41/41/61 34/34/54
f 34/34/54 41/41/61 35/35/55
f 35/35/55 41/41/61 36/36/56
f 36/36/56 41/41/61 37/37/57
f 37/37/57 41/41/61 38/38/58
f 38/38/58 41/41/61 39/39/59
f 39/39/59 41/41/61 40/40/60
f 40/40/60 41/41/61 31/31/51
f 81/81/62 42/42/63 43/43/64 72/72/65
f 72/72/65 43/43/64 44/44/66 73/73/67
f 73/73/67 44/44/66 45/45/68 74/74/69
f 74/74/69 45/45/68 46/46/70 75/75/71
f 75/75/71 46/46/70 47/47/72 76/76/73
f 76/76/73 47/47/72 48/48/74 77/77/75
f 77/77/75 48/48/74 49/49/76 78/78/77
f 78/78/77 49/49/76 50/50/78 79/79/79
f 79/79/79 50/50/78 51/51/80 80/80/81
f 80/80/81 51/51/80 42/42/63 81/81/62
f 53/53/82 49/49/76 48/48/74 55/55/83
f 55/55/83 48/48/74 47/47/72 57/57/84
f 57/57/84 47/47/72 46/46/70 59/59/85
f 59/59/85 46/46/70 45/45/68 61/61/86
f 61/61/86 45/45/68 44/44/66 63/63/87
f 63/63/87 44/44/66 43/43/64 65/65/88
f 65/65/88 43/43/64 42/42/63 67/67/89
f 67/67/89 42/42/63 51/51/80 69/69/90
f 69/69/90 51/51/80 50/50/78 71/71/91
f 71/71/91 50/50/78 49/49/76 53/53/82
f 52/52/92 53/53/82 55/55/83 54/54/93
f 71/71/91 53/53/82 52/52/92 70/70/94
f 54/54/93 55/55/83 57/57/84 56/56/95
f 56/56/95 57/57/84 59/59/85 58/58/96
f 58/58/96 59/59/85 61/61/86 60/60/97
f 60/60/97 61/61/86 63/63/87 62/62/98
f 62/62/98 63/63/87 65/65/88 64/64/99
f 64/64/99 65/65/88 67/67/89 66/66/100
f 66/66/100 67/67/89 69/69/90 68/68/101
f 68/68/101 69/69/90 71/71/91 70/70/94
f 81/81/62 72/72/65 27/27/44 28/28/45
f 27/27/44 72/72/65 73/73/67 26/26/42
f 26/26/42 73/73/67 74/74/69 25/25/40
f 25/25/40 74/74/69 75/75/71 24/24/38
f 24/24/38 75/75/71 76/76/73 23/23/36
f 23/23/36 76/76/73 77/77/75 22/22/33
f 22/22/33 77/77/75 78/78/77 21/21/34
f 21/21/34 78/78/77 79/79/79 30/30/50
f 30/30/50 79/79/79 80/80/81 29/29/48
f 29/29/48 80/80/81 81/81/62 28/28/45
f 93/93/21 92/92/30 102/102/102 103/103/103
f 94/94/22 93/93/21 103/103/103 104/104/104
f 95/95/23 94/94/22 104/104/104 105/105/105
f 96/96/24 95/95/23 105/105/105 106/106/106
f 97/97/25 96/96/24 106/106/106 107/107/107
f 98/98/26 97/97/25 107/107/107 108/108/108
f 99/99/27 98/98/26 108/108/108 109/109/109
f 100/100/28 99/99/27 109/109/109 110/110/110
f 101/101/29 100/100/28 110/110/110 111/111/111
f 92/92/30 101/101/29 111/111/111 102/102/102
f 52/52/92 54/54/93 103/103/103 102/102/102
f 54/54/93 56/56/95 104/104/104 103/103/103
f 56/56/95 58/58/96 105/105/105 104/104/104
f 58/58/96 60/60/97 106/106/106 105/105/105
f 60/60/97 62/62/98 107/107/107 106/106/106
f 62/62/98 64/64/99 108/108/108 107/107/107
f 109/109/109 108/108/108 64/64/99 66/66/100
f 66/66/100 68/68/101 110/110/110 109/109/109
f 68/68/101 70/70/94 111/111/111 110/110/110
f 70/70/94 52/52/92 102/102/102 111/111/111
