# Blender 3.3.1
# www.blender.org
mtllib crystal_controller_right_button5.mtl
o crystal_controller_right_button5
v 0.013085 -0.008353 0.017601
v 0.014871 -0.008371 0.015143
v 0.017760 -0.008378 0.014204
v 0.020650 -0.008371 0.015143
v 0.022436 -0.008353 0.017601
v 0.022436 -0.008330 0.020639
v 0.020650 -0.008312 0.023097
v 0.017760 -0.008305 0.024036
v 0.014871 -0.008312 0.023097
v 0.013085 -0.008330 0.020639
v 0.014832 0.001206 0.018098
v 0.015951 0.001194 0.016558
v 0.017760 0.001190 0.015970
v 0.019570 0.001194 0.016558
v 0.020688 0.001206 0.018098
v 0.020688 0.001220 0.020000
v 0.019570 0.001231 0.021540
v 0.017760 0.001236 0.022128
v 0.015951 0.001231 0.021540
v 0.014832 0.001220 0.020000
v 0.017760 0.001063 0.019050
v 0.013085 0.001310 0.017529
v 0.013246 0.001453 0.017580
v 0.014871 0.001292 0.015071
v 0.014970 0.001436 0.015207
v 0.017760 0.001285 0.014132
v 0.017760 0.001429 0.014300
v 0.020650 0.001292 0.015071
v 0.020551 0.001436 0.015207
v 0.022436 0.001310 0.017529
v 0.022275 0.001453 0.017580
v 0.022436 0.001333 0.020567
v 0.022275 0.001475 0.020514
v 0.020650 0.001351 0.023025
v 0.020551 0.001493 0.022888
v 0.017760 0.001358 0.023964
v 0.017760 0.001500 0.023794
v 0.014871 0.001351 0.023025
v 0.014970 0.001493 0.022888
v 0.013085 0.001333 0.020567
v 0.013246 0.001475 0.020514
vn -0.0538 0.9952 -0.0814
vn -0.0870 0.9956 -0.0357
vn 0.1320 0.9894 0.0599
vn 0.1048 0.9897 0.0974
vn -0.0000 0.9951 -0.0989
vn -0.0537 0.9952 -0.0814
vn 0.0232 0.9900 0.1390
vn 0.0537 0.9952 -0.0814
vn -0.0673 0.9899 0.1247
vn 0.0870 0.9956 -0.0357
vn 0.0538 0.9952 -0.0814
vn -0.1320 0.9894 0.0599
vn 0.0870 0.9960 0.0208
vn -0.1464 0.9888 -0.0305
vn 0.0538 0.9963 0.0666
vn 0.0870 0.9960 0.0209
vn -0.1048 0.9882 -0.1121
vn -0.0000 0.9965 0.0840
vn 0.0537 0.9963 0.0666
vn -0.0232 0.9878 -0.1537
vn -0.0537 0.9963 0.0666
vn 0.0673 0.9879 -0.1394
vn -0.0870 0.9960 0.0209
vn -0.0538 0.9963 0.0666
vn 0.1320 0.9884 -0.0746
vn -0.0870 0.9960 0.0208
vn -0.0000 1.0000 -0.0074
vn -0.1463 0.9888 -0.0305
vn 0.0673 0.9880 -0.1394
vn -0.9509 0.0133 -0.3091
vn -0.0870 0.9956 -0.0356
vn -0.5878 0.0096 -0.8090
vn -0.9510 0.0133 -0.3090
vn -0.9509 0.0179 0.3089
vn -0.5877 0.0096 -0.8090
vn -0.0000 0.9951 -0.0988
vn -0.0000 0.0082 -1.0000
vn 0.5877 0.0096 -0.8090
vn 0.5878 0.0096 -0.8090
vn 0.0870 0.9956 -0.0356
vn 0.9509 0.0133 -0.3091
vn 0.9510 0.0134 -0.3090
vn 0.0869 0.9956 -0.0357
vn 0.0869 0.9960 0.0209
vn 0.9509 0.0180 0.3088
vn 0.9509 0.0179 0.3090
vn 0.5877 0.0217 0.8088
vn 0.0538 0.9963 0.0665
vn -0.0000 0.0231 0.9997
vn -0.5877 0.0217 0.8088
vn -0.5878 0.0217 0.8087
vn -0.9509 0.0180 0.3089
vn -0.0000 -1.0000 0.0074
vn -0.0001 -1.0000 0.0074
vn -0.9509 0.0134 -0.3091
vn -0.5877 0.0097 -0.8090
vn -0.0000 -1.0000 0.0075
vn 0.5877 0.0097 -0.8090
vn 0.0001 -1.0000 0.0074
vn 0.9509 0.0134 -0.3091
vn -0.0000 -1.0000 0.0073
vn 0.0001 -1.0000 0.0075
vn 0.9509 0.0180 0.3089
vn -0.0000 0.0076 1.0000
vn -0.5878 0.0060 0.8090
vn -0.0000 0.0075 1.0000
vn -0.0001 -1.0000 0.0075
vn -0.9509 0.0180 0.3088
vt 0.357105 0.814582
vt 0.338131 0.795303
vt 0.334128 0.768660
vt 0.346414 0.744816
vt 0.370387 0.732677
vt 0.396969 0.736923
vt 0.416009 0.755991
vt 0.420220 0.782619
vt 0.407965 0.806673
vt 0.383852 0.818930
vt 0.511948 0.947779
vt 0.524220 0.965292
vt 0.544442 0.972248
vt 0.564890 0.965988
vt 0.577754 0.948905
vt 0.578120 0.927524
vt 0.565848 0.910011
vt 0.545626 0.903055
vt 0.525178 0.909315
vt 0.512314 0.926398
vt 0.545034 0.937651
vt 0.365932 0.793144
vt 0.493832 0.953318
vt 0.367178 0.791294
vt 0.358209 0.783208
vt 0.512819 0.980422
vt 0.360156 0.782400
vt 0.357919 0.770600
vt 0.544112 0.991189
vt 0.359990 0.771362
vt 0.364699 0.760225
vt 0.575756 0.981506
vt 0.366058 0.761986
vt 0.376247 0.755738
vt 0.595665 0.955072
vt 0.376345 0.757986
vt 0.388253 0.758936
vt 0.596236 0.921985
vt 0.387013 0.760812
vt 0.396015 0.768684
vt 0.577248 0.894881
vt 0.393909 0.769486
vt 0.396692 0.781171
vt 0.545956 0.884115
vt 0.394523 0.780593
vt 0.389901 0.791755
vt 0.514312 0.893797
vt 0.388476 0.790023
vt 0.378156 0.796441
vt 0.494402 0.920231
vt 0.378030 0.794199
s 0
usemtl crystal_controller2_group1_pasted__pCylinder5SG
f 25/26/1 23/23/2 11/11/3 12/12/4
f 27/29/5 25/26/6 12/12/4 13/13/7
f 29/32/8 27/29/5 13/13/7 14/14/9
f 31/35/10 29/32/11 14/14/9 15/15/12
f 33/38/13 31/35/10 15/15/12 16/16/14
f 35/41/15 33/38/16 16/16/14 17/17/17
f 37/44/18 35/41/19 17/17/17 18/18/20
f 39/47/21 37/44/18 18/18/20 19/19/22
f 41/50/23 39/47/24 19/19/22 20/20/25
f 23/23/2 41/50/26 20/20/25 11/11/3
f 11/11/3 21/21/27 12/12/4
f 12/12/4 21/21/27 13/13/7
f 13/13/7 21/21/27 14/14/9
f 14/14/9 21/21/27 15/15/12
f 15/15/12 21/21/27 16/16/28
f 16/16/28 21/21/27 17/17/17
f 17/17/17 21/21/27 18/18/20
f 18/18/20 21/21/27 19/19/29
f 19/19/22 21/21/27 20/20/25
f 20/20/25 21/21/27 11/11/3
f 22/22/30 23/24/31 25/27/6 24/25/32
f 23/24/2 22/22/33 40/49/34 41/51/23
f 24/25/35 25/27/1 27/30/36 26/28/37
f 26/28/37 27/30/36 29/33/11 28/31/38
f 28/31/39 29/33/8 31/36/40 30/34/41
f 30/34/42 31/36/43 33/39/44 32/37/45
f 32/37/46 33/39/13 35/42/19 34/40/47
f 34/40/47 35/42/48 37/45/18 36/43/49
f 36/43/49 37/45/18 39/48/24 38/46/50
f 38/46/51 39/48/21 41/51/26 40/49/52
f 2/2/53 1/1/54 22/22/55 24/25/56
f 3/3/57 2/2/53 24/25/56 26/28/37
f 4/4/53 3/3/57 26/28/37 28/31/58
f 5/5/59 4/4/53 28/31/58 30/34/60
f 6/6/61 5/5/53 30/34/60 32/37/45
f 7/7/57 6/6/62 32/37/63 34/40/47
f 8/8/64 7/7/57 34/40/47 36/43/49
f 9/9/65 8/8/66 36/43/49 38/46/50
f 10/10/67 9/9/65 38/46/50 40/49/52
f 1/1/53 10/10/57 40/49/68 22/22/55
