# Blender 3.3.1
# www.blender.org
mtllib status_right.mtl
o status_right
v -0.004314 -0.004916 0.046000
v -0.007561 -0.020355 0.070262
v 0.000413 -0.004706 0.046766
v -0.002834 -0.020145 0.071029
v 0.005301 -0.004972 0.047251
v 0.002054 -0.020411 0.071514
v 0.010162 -0.005703 0.047437
v 0.006914 -0.021142 0.071699
v 0.014808 -0.006872 0.047315
v 0.011561 -0.022311 0.071577
v 0.019063 -0.008433 0.046891
v 0.015816 -0.023872 0.071153
v 0.022762 -0.010327 0.046180
v 0.019514 -0.025766 0.070443
vn -0.1220 0.8447 0.5212
vn -0.0073 0.8441 0.5361
vn 0.1045 0.8327 0.5438
vn 0.2181 0.8099 0.5446
vn 0.3372 0.7732 0.5371
vn 0.4666 0.7166 0.5184
vt -0.000197 1.003108
vt 0.000667 0.001393
vt 0.166715 1.003255
vt 0.167579 0.001540
vt 0.333627 1.003402
vt 0.334491 0.001687
vt 0.500539 1.003549
vt 0.501403 0.001834
vt 0.667450 1.003696
vt 0.668315 0.001981
vt 0.834362 1.003843
vt 0.835227 0.002128
vt 1.001274 1.003990
vt 1.002138 0.002275
s 0
usemtl status
f 1/1/1 2/2/1 4/4/1 3/3/1
f 3/3/2 4/4/2 6/6/2 5/5/2
f 5/5/3 6/6/3 8/8/3 7/7/3
f 7/7/4 8/8/4 10/10/4 9/9/4
f 9/9/5 10/10/5 12/12/5 11/11/5
f 11/11/6 12/12/6 14/14/6 13/13/6
