# Blender 3.3.1
# www.blender.org
mtllib crystal_controller_left_button6.mtl
o crystal_controller_left_button6
v 0.005305 -0.033954 0.022316
v 0.009246 -0.031729 0.024677
v 0.011968 -0.027688 0.030096
v 0.013000 -0.023558 0.035352
v 0.013060 -0.020570 0.037856
v 0.013121 -0.016821 0.033527
v 0.003871 -0.028534 0.016851
v 0.007885 -0.026367 0.019407
v 0.011814 -0.022429 0.024675
v 0.013375 -0.018318 0.030180
v -0.005517 -0.026888 0.016110
v -0.001713 -0.025242 0.017927
v 0.003263 -0.020190 0.024408
v 0.004671 -0.015766 0.030919
v 0.003735 -0.015011 0.035717
v 0.003713 -0.020357 0.041211
v 0.004536 -0.025364 0.039907
v 0.003461 -0.029977 0.034037
v 0.000681 -0.034727 0.027565
v -0.003201 -0.036426 0.025816
v -0.007748 -0.027916 0.017389
v -0.005789 -0.034233 0.023992
v 0.002932 -0.026863 0.014792
v 0.006736 -0.025217 0.016609
v 0.011712 -0.020166 0.023090
v 0.013120 -0.015742 0.029601
v 0.012184 -0.014986 0.034399
v 0.012161 -0.020333 0.039893
v 0.012985 -0.025339 0.038589
v 0.011910 -0.029953 0.032719
v 0.009129 -0.034703 0.026248
v 0.005247 -0.036402 0.024498
v 0.002479 -0.034023 0.022537
v 0.000896 -0.028431 0.016740
v 0.004316 -0.027184 0.014955
v 0.008096 -0.025237 0.017311
v 0.012491 -0.020736 0.023155
v 0.014023 -0.016551 0.029097
v 0.013263 -0.015471 0.033749
v 0.013208 -0.020608 0.039326
v 0.013783 -0.025661 0.037434
v 0.012693 -0.029779 0.032028
v 0.010209 -0.034002 0.026175
v 0.006404 -0.036100 0.024079
v 0.001602 -0.027160 0.015151
v -0.006847 -0.027047 0.016287
v -0.004452 -0.036354 0.025770
v 0.003707 -0.036289 0.024432
v 0.003236 -0.016895 0.039209
v 0.011685 -0.016871 0.037891
v 0.012749 -0.017140 0.037351
v 0.012818 -0.018205 0.036148
v 0.012823 -0.020829 0.032707
v 0.011566 -0.024873 0.027347
v 0.008242 -0.028821 0.022241
v 0.004295 -0.031137 0.019751
v 0.001171 -0.031260 0.019919
v -0.007261 -0.031093 0.021010
vn 0.9818 0.0745 -0.1748
vn 0.9823 0.1609 -0.0964
vn 0.9777 0.2067 -0.0382
vn 0.9595 0.1424 -0.2430
vn 0.9512 0.0461 -0.3050
vn 0.9516 -0.0147 -0.3070
vn 0.8336 -0.0346 -0.5512
vn 0.8277 -0.0643 -0.5575
vn 0.1449 -0.5860 -0.7973
vn 0.1509 -0.5944 -0.7899
vn -0.1096 -0.6818 -0.7233
vn -0.0819 -0.7288 -0.6798
vn 0.4110 -0.5968 -0.6891
vn 0.8027 -0.3456 -0.4860
vn 0.9452 -0.2027 -0.2559
vn 0.9919 -0.1020 -0.0762
vn 0.9999 -0.0100 0.0120
vn 0.1993 -0.8271 -0.5255
vn 0.7223 -0.6463 -0.2461
vn 0.7386 -0.5724 -0.3561
vn 0.2265 -0.7806 -0.5825
vn 0.8915 -0.4423 -0.0978
vn 0.9100 -0.3938 -0.1301
vn 0.9591 -0.2594 0.1135
vn 0.9609 -0.2611 0.0924
vn 0.9774 -0.0927 0.1899
vn 0.9791 -0.1189 0.1652
vn -0.1221 0.6249 -0.7711
vn -0.0779 0.8723 -0.4827
vn -0.1006 -0.7032 -0.7038
vn -0.0984 -0.6989 -0.7084
vn -0.0914 0.8158 -0.5711
vn -0.0907 0.8191 -0.5665
vn -0.0907 0.8191 -0.5664
vn -0.0675 0.9069 -0.4158
vn -0.0697 0.9002 -0.4299
vn 0.0261 0.9823 0.1856
vn 0.0204 0.9886 0.1491
vn 0.1085 0.6973 0.7085
vn 0.1469 0.7184 0.6800
vn 0.1500 0.2119 0.9657
vn 0.1509 0.1868 0.9707
vn 0.1239 -0.6095 0.7831
vn 0.1230 -0.6171 0.7772
vn 0.0906 -0.8195 0.5659
vn 0.0907 -0.8195 0.5659
vn 0.0914 -0.8159 0.5709
vn 0.0905 -0.8198 0.5654
vn 0.0668 -0.9018 0.4270
vn 0.0952 -0.7970 0.5964
vn -0.1116 -0.6785 -0.7261
vn -0.1122 -0.6772 -0.7272
vn -0.1091 -0.6847 -0.7206
vn -0.0999 -0.7338 -0.6720
vn -0.0934 -0.7750 -0.6250
vn -0.0937 -0.7741 -0.6261
vn 0.8160 0.4250 0.3919
vt 0.091312 0.763897
vt 0.087218 0.744581
vt 0.085900 0.719128
vt 0.081636 0.696496
vt 0.076571 0.683894
vt 0.058098 0.690060
vt 0.061964 0.772037
vt 0.058677 0.752758
vt 0.056396 0.726098
vt 0.056120 0.702451
vt 0.049781 0.805062
vt 0.034300 0.786311
vt 0.011818 0.731361
vt 0.021694 0.681384
vt 0.039620 0.656885
vt 0.085920 0.647344
vt 0.113240 0.667307
vt 0.132590 0.710558
vt 0.125162 0.762161
vt 0.120130 0.785499
vt 0.057759 0.815443
vt 0.107997 0.802548
vt 0.051637 0.774343
vt 0.045611 0.759098
vt 0.041511 0.725348
vt 0.044759 0.697996
vt 0.052219 0.682102
vt 0.079922 0.674985
vt 0.094224 0.687364
vt 0.102122 0.712877
vt 0.102230 0.743442
vt 0.103500 0.759530
vt 0.095293 0.774122
vt 0.061206 0.783032
vt 0.053185 0.770339
vt 0.049423 0.754591
vt 0.046817 0.725688
vt 0.048546 0.701687
vt 0.054379 0.687012
vt 0.079318 0.679616
vt 0.091756 0.692562
vt 0.097271 0.715062
vt 0.097836 0.741110
vt 0.100358 0.757007
vt 0.052991 0.779217
vt 0.050553 0.810298
vt 0.121182 0.790453
vt 0.104948 0.764818
vt 0.061263 0.646233
vt 0.064956 0.674377
vt 0.065522 0.679110
vt 0.066653 0.684704
vt 0.068589 0.699902
vt 0.070581 0.723379
vt 0.072886 0.749346
vt 0.077091 0.769708
vt 0.079668 0.781835
vt 0.084817 0.813952
s 1
usemtl crystal_controller2_group1_pasted__pCylinder5SG
f 4/4/1 5/5/2 40/40/3 41/41/4
f 41/41/4 42/42/5 3/3/6 4/4/1
f 42/42/5 43/43/7 2/2/8 3/3/6
f 43/43/7 44/44/9 1/1/10 2/2/8
f 33/33/11 57/57/12 56/56/13 1/1/10
f 55/55/14 2/2/8 1/1/10 56/56/13
f 54/54/15 3/3/6 2/2/8 55/55/14
f 53/53/16 4/4/1 3/3/6 54/54/15
f 52/52/17 5/5/2 4/4/1 53/53/16
f 35/35/18 36/36/19 8/8/20 7/7/21
f 36/36/19 37/37/22 9/9/23 8/8/20
f 37/37/22 38/38/24 10/10/25 9/9/23
f 38/38/24 39/39/26 6/6/27 10/10/25
f 11/11/28 23/23/29 45/45/30 46/46/31
f 12/12/32 24/24/33 23/23/29 11/11/28
f 13/13/34 25/25/34 24/24/33 12/12/32
f 14/14/35 26/26/36 25/25/34 13/13/34
f 15/15/37 27/27/38 26/26/36 14/14/35
f 49/49/39 50/50/40 27/27/38 15/15/37
f 16/16/41 28/28/42 50/50/40 49/49/39
f 17/17/43 29/29/44 28/28/42 16/16/41
f 18/18/45 30/30/46 29/29/44 17/17/43
f 19/19/47 31/31/48 30/30/46 18/18/45
f 20/20/49 32/32/50 31/31/48 19/19/47
f 47/47/51 48/48/52 32/32/50 20/20/49
f 33/33/11 48/48/52 47/47/51 22/22/53
f 58/58/54 57/57/12 33/33/11 22/22/53
f 46/46/31 45/45/30 34/34/55 21/21/56
f 44/44/9 48/48/52 33/33/11 1/1/10
f 35/35/18 45/45/30 23/23/29
f 24/24/33 36/36/19 35/35/18 23/23/29
f 25/25/34 37/37/22 36/36/19 24/24/33
f 26/26/36 38/38/24 37/37/22 25/25/34
f 27/27/38 39/39/26 38/38/24 26/26/36
f 50/50/40 51/51/57 39/39/26 27/27/38
f 28/28/42 40/40/3 51/51/57 50/50/40
f 29/29/44 41/41/4 40/40/3 28/28/42
f 30/30/46 42/42/5 41/41/4 29/29/44
f 31/31/48 43/43/7 42/42/5 30/30/46
f 32/32/50 44/44/9 43/43/7 31/31/48
f 44/44/9 32/32/50 48/48/52
f 51/51/57 52/52/17 6/6/27 39/39/26
f 40/40/3 5/5/2 52/52/17 51/51/57
f 35/35/18 7/7/21 34/34/55 45/45/30
f 6/6/27 52/52/17 53/53/16 10/10/25
f 10/10/25 53/53/16 54/54/15 9/9/23
f 9/9/23 54/54/15 55/55/14 8/8/20
f 8/8/20 55/55/14 56/56/13 7/7/21
f 57/57/12 34/34/55 7/7/21 56/56/13
f 21/21/56 34/34/55 57/57/12 58/58/54
